<svg width="40" height="20" viewBox="0 0 40 20" fill="none" xmlns="http://www.w3.org/2000/svg">
<path d="M17.8757 10.0129L0.880975 3.18876C-0.293658 2.71709 -0.293658 1.9544 0.880975 1.48775L3.70509 0.353749C4.87972 -0.117916 6.77913 -0.117916 7.94127 0.353749L19.9875 5.19083L32.0337 0.353749C33.2084 -0.117916 35.1078 -0.117916 36.2699 0.353749L39.119 1.48274C40.2937 1.9544 40.2937 2.71709 39.119 3.18374L22.1243 10.0078C20.9497 10.4845 19.0503 10.4845 17.8757 10.0129ZM22.1243 19.6469L39.119 12.8228C40.2937 12.3511 40.2937 11.5884 39.119 11.1218L36.2949 9.98777C35.1203 9.5161 33.2209 9.5161 32.0587 9.98777L20 14.8198L7.95376 9.98275C6.77913 9.51108 4.87972 9.51108 3.71759 9.98275L0.880975 11.1168C-0.293658 11.5884 -0.293658 12.3511 0.880975 12.8178L17.8757 19.6419C19.0503 20.1185 20.9497 20.1185 22.1243 19.6469Z" fill="white"/>
</svg>
