<svg width="20" height="20" viewBox="0 0 20 20" fill="none" xmlns="http://www.w3.org/2000/svg">
<path d="M8.93783 10.0129L0.440487 3.18876C-0.146829 2.71709 -0.146829 1.9544 0.440487 1.48775L1.85255 0.353749C2.43986 -0.117916 3.38957 -0.117916 3.97063 0.353749L9.99375 5.19083L16.0169 0.353749C16.6042 -0.117916 17.5539 -0.117916 18.135 0.353749L19.5595 1.48274C20.1468 1.9544 20.1468 2.71709 19.5595 3.18374L11.0622 10.0078C10.4749 10.4845 9.52515 10.4845 8.93783 10.0129ZM11.0622 19.6469L19.5595 12.8228C20.1468 12.3511 20.1468 11.5884 19.5595 11.1218L18.1475 9.98777C17.5601 9.5161 16.6104 9.5161 16.0294 9.98777L10 14.8198L3.97688 9.98275C3.38957 9.51108 2.43986 9.51108 1.85879 9.98275L0.440487 11.1168C-0.146829 11.5884 -0.146829 12.3511 0.440487 12.8178L8.93783 19.6419C9.52515 20.1185 10.4749 20.1185 11.0622 19.6469Z" fill="white"/>
</svg>
