<svg width="40" height="20" viewBox="0 0 40 20" fill="none" xmlns="http://www.w3.org/2000/svg">
<path d="M22.1243 9.98495L39.119 16.8071C40.2937 17.2787 40.2937 18.0411 39.119 18.5077L36.2949 19.6413C35.1203 20.1129 33.2209 20.1129 32.0587 19.6413L20 14.8106L7.95376 19.6464C6.77913 20.1179 4.87972 20.1179 3.71759 19.6464L0.880975 18.5127C-0.293658 18.0411 -0.293658 17.2787 0.880975 16.8121L17.8757 9.98997C19.0503 9.51342 20.9497 9.51342 22.1243 9.98495ZM17.8757 0.353649L0.880975 7.17582C-0.293658 7.64735 -0.293658 8.40983 0.880975 8.87635L3.70509 10.01C4.87972 10.4816 6.77913 10.4816 7.94127 10.01L19.9875 5.17432L32.0337 10.01C33.2084 10.4816 35.1078 10.4816 36.2699 10.01L39.094 8.87635C40.2687 8.40482 40.2687 7.64234 39.094 7.17582L22.0993 0.353649C20.9497 -0.117883 19.0503 -0.117883 17.8757 0.353649Z" fill="white"/>
</svg>
