<svg width="20" height="20" viewBox="0 0 20 20" fill="none" xmlns="http://www.w3.org/2000/svg">
<path d="M11.0622 9.98495L19.5595 16.8071C20.1468 17.2787 20.1468 18.0411 19.5595 18.5077L18.1475 19.6413C17.5601 20.1129 16.6104 20.1129 16.0294 19.6413L10 14.8106L3.97688 19.6464C3.38957 20.1179 2.43986 20.1179 1.85879 19.6464L0.440487 18.5127C-0.146829 18.0411 -0.146829 17.2787 0.440487 16.8121L8.93783 9.98997C9.52515 9.51342 10.4749 9.51342 11.0622 9.98495ZM8.93783 0.353649L0.440487 7.17582C-0.146829 7.64735 -0.146829 8.40983 0.440487 8.87635L1.85255 10.01C2.43986 10.4816 3.38957 10.4816 3.97063 10.01L9.99375 5.17432L16.0169 10.01C16.6042 10.4816 17.5539 10.4816 18.135 10.01L19.547 8.87635C20.1343 8.40482 20.1343 7.64234 19.547 7.17582L11.0497 0.353649C10.4749 -0.117883 9.52515 -0.117883 8.93783 0.353649Z" fill="white"/>
</svg>
